<?xml version="1.0" encoding="UTF-8" standalone="no"?>
<!-- Created with Inkscape (http://www.inkscape.org/) -->

<svg
   xmlns:dc="http://purl.org/dc/elements/1.1/"
   xmlns:cc="http://creativecommons.org/ns#"
   xmlns:rdf="http://www.w3.org/1999/02/22-rdf-syntax-ns#"
   xmlns:svg="http://www.w3.org/2000/svg"
   xmlns="http://www.w3.org/2000/svg"
   xmlns:sodipodi="http://sodipodi.sourceforge.net/DTD/sodipodi-0.dtd"
   xmlns:inkscape="http://www.inkscape.org/namespaces/inkscape"
   version="1.1"
   width="1052.3625"
   height="744.09497"
   id="svg2"
   xml:space="preserve"
   inkscape:version="0.48.2 r9819"
   sodipodi:docname="wehicle.svg"><sodipodi:namedview
     pagecolor="#ffffff"
     bordercolor="#666666"
     borderopacity="1"
     objecttolerance="10"
     gridtolerance="10"
     guidetolerance="10"
     inkscape:pageopacity="0"
     inkscape:pageshadow="2"
     inkscape:window-width="1440"
     inkscape:window-height="852"
     id="namedview3085"
     showgrid="false"
     inkscape:zoom="0.55100493"
     inkscape:cx="204.95003"
     inkscape:cy="372.04749"
     inkscape:window-x="0"
     inkscape:window-y="0"
     inkscape:window-maximized="1"
     inkscape:current-layer="svg2" /><metadata
     id="metadata8"><rdf:RDF><cc:Work
         rdf:about=""><dc:format>image/svg+xml</dc:format><dc:type
           rdf:resource="http://purl.org/dc/dcmitype/StillImage" /></cc:Work></rdf:RDF></metadata><defs
     id="defs6"><clipPath
       id="clipPath16"><path
         d="m 0,595.276 841.89,0 L 841.89,0 0,0 0,595.276 z"
         inkscape:connector-curvature="0"
         id="path18" /></clipPath></defs><g
     transform="matrix(2.3656723,0,0,-2.7114354,-487.98158,1405.7386)"
     id="g10"><g
       id="g12"><g
         clip-path="url(#clipPath16)"
         id="g14"><g
   transform="translate(259.5493,500.334)"
   id="g20"><path
     d="m 0,0 -21.764,-7.6 -2.959,8.69 c -0.444,1.272 0.226,2.662 1.497,3.105 l 17.162,5.993 c 1.271,0.442 2.661,-0.228 3.105,-1.5 L 0,0 z M 28.953,4.749 7.556,-2.722 1.632,14.46 c -0.683,1.956 -2.825,2.99 -4.785,2.306 L -29.599,7.531 c -1.96,-0.683 -2.992,-2.826 -2.308,-4.782 l 5.922,-17.183 -21.396,-7.47 c -1.959,-0.685 -2.992,-2.828 -2.307,-4.785 l 5.005,-14.333 c 0.598,-1.715 2.315,-2.723 4.048,-2.489 l -2.045,5.857 77.758,27.154 2.044,-5.858 c 1.502,0.896 2.221,2.752 1.621,4.465 L 33.738,2.443 C 33.054,4.4 30.913,5.433 28.953,4.749"
     inkscape:connector-curvature="0"
     id="path22"
     style="fill:#737577;fill-opacity:1;fill-rule:nonzero;stroke:none" /></g><g
   transform="translate(296.3857,483.877)"
   id="g24"><path
     d="M 0,0 -77.187,-26.953 -77.54,-25.94 -0.354,1.011 0,0 z"
     inkscape:connector-curvature="0"
     id="path26"
     style="fill:#373535;fill-opacity:1;fill-rule:nonzero;stroke:none" /></g>
             <!--<g
           transform="translate(177.2661,91.084)"
           id="g28"><path
             d="m 0,0 -27.161,105.211 21.564,0 c 0,0 15.968,-72.289 17.778,-83.317 l 0.33,0 c 1.81,11.686 20.082,71.839 20.082,71.839 l 21.235,0 c 0,0 16.132,-59.33 17.777,-71.346 l 0.33,0 c 1.976,12.182 19.095,82.824 19.095,82.824 l 20.576,0 L 81.812,0 60.083,0 c 0,0 -16.296,61.047 -17.613,73.062 l -0.329,0 C 40.165,61.21 21.893,0 21.893,0 L 0,0 z"
             inkscape:connector-curvature="0"
             id="path30"
             style="fill:#337abe;fill-opacity:1;fill-rule:nonzero;stroke:none" /></g>
           
           <g
           transform="translate(344.8438,139.6436)"
           id="g32"><path
             d="M 0,0 C 0.165,7.407 -3.127,19.59 -16.626,19.59 -29.136,19.59 -34.404,8.231 -35.227,0 L 0,0 z m -35.227,-14.156 c 0.494,-14.486 11.852,-20.741 24.692,-20.741 9.383,0 16.132,1.316 22.222,3.622 l 2.964,-13.993 c -6.915,-2.798 -16.462,-5.102 -27.984,-5.102 -26.009,0 -41.318,16.13 -41.318,40.658 0,22.222 13.499,43.13 39.178,43.13 26.174,0 34.568,-21.401 34.568,-39.014 0,-3.786 -0.329,-6.75 -0.658,-8.56 l -53.664,0 z"
             inkscape:connector-curvature="0"
             id="path34"
             style="fill:#337abe;fill-opacity:1;fill-rule:nonzero;stroke:none" /></g><g
           transform="translate(380.2373,205.0898)"
           id="g36"><path
             d="m 0,0 20.412,0 0,-44.869 0.327,0 c 2.47,3.784 5.927,7.077 10.042,9.218 3.951,2.305 8.725,3.623 13.827,3.623 13.663,0 27.985,-9.057 27.985,-34.737 l 0,-47.241 -20.248,0 0,44.939 c 0,11.687 -4.279,20.412 -15.472,20.412 -7.901,0 -13.5,-5.268 -15.639,-11.359 -0.658,-1.645 -0.822,-3.786 -0.822,-6.091 l 0,-47.901 -20.412,0 L 0,0 z"
             inkscape:connector-curvature="0"
             id="path38"
             style="fill:#616264;fill-opacity:1;fill-rule:nonzero;stroke:none" /></g>
           <path
           d="m 474.396,171.248 20.412,0 0,-80.164 -20.412,0 0,80.164 z m 21.565,19.519 c 0,-6.089 -4.445,-10.864 -11.523,-10.864 -6.75,0 -11.195,4.775 -11.195,10.864 0,6.255 4.609,11.03 11.36,11.03 6.913,0 11.193,-4.775 11.358,-11.03"
           inkscape:connector-curvature="0"
           id="path40"
           style="fill:#616264;fill-opacity:1;fill-rule:nonzero;stroke:none" /><g
           transform="translate(575.4678,93.5518)"
           id="g42"><path
             d="m 0,0 c -4.278,-1.975 -12.675,-4.278 -22.715,-4.278 -25.02,0 -41.318,16.13 -41.318,40.988 0,24.032 16.461,42.8 44.61,42.8 7.407,0 14.98,-1.649 19.588,-3.789 L -3.457,60.577 c -3.291,1.483 -8.065,3.13 -15.308,3.13 -15.474,0 -24.693,-11.359 -24.527,-26.011 0,-16.46 10.7,-25.844 24.527,-25.844 7.078,0 12.017,1.483 15.967,3.13 L 0,0 z"
             inkscape:connector-curvature="0"
             id="path44"
             style="fill:#616264;fill-opacity:1;fill-rule:nonzero;stroke:none" /></g><path
           d="m 590.449,205.09 20.412,0 0,-114.006 -20.412,0 0,114.006 z"
           inkscape:connector-curvature="0"
           id="path46"
           style="fill:#616264;fill-opacity:1;fill-rule:nonzero;stroke:none" /><g
           transform="translate(682.3008,139.6436)"
           id="g48"><path
             d="M 0,0 C 0.165,7.407 -3.127,19.59 -16.626,19.59 -29.137,19.59 -34.404,8.231 -35.227,0 L 0,0 z m -35.227,-14.156 c 0.496,-14.486 11.852,-20.741 24.692,-20.741 9.384,0 16.132,1.316 22.222,3.622 l 2.963,-13.993 c -6.914,-2.798 -16.46,-5.102 -27.984,-5.102 -26.008,0 -41.316,16.13 -41.316,40.658 0,22.222 13.497,43.13 39.176,43.13 26.174,0 34.57,-21.401 34.57,-39.014 0,-3.786 -0.33,-6.75 -0.659,-8.56 l -53.664,0 z"
             inkscape:connector-curvature="0"
             id="path50"
             style="fill:#616264;fill-opacity:1;fill-rule:nonzero;stroke:none" /></g>--><g
   transform="translate(394.8447,455.3076)"
   id="g52"><path
     d="m 0,0 c -5.263,8.903 -13.51,10.618 -19.485,-2.178 -0.131,-0.281 -2.011,-5.262 -2.154,-5.709 l -15.071,-42.359 -15.549,-44.355 34.183,-98.416 c 0.178,-0.558 0.695,-2.049 1.629,-3.862 1.649,-2.61 7.815,-10.218 14.517,8.952 0.231,0.664 0.456,1.276 0.679,1.853 l 33.753,96.182 c 0,0 -18.593,52.286 -20.706,58.403 C 6.831,-17.1 1.768,-2.979 0,0"
     inkscape:connector-curvature="0"
     id="path54"
     style="fill:#737577;fill-opacity:1;fill-rule:nonzero;stroke:none" /></g><g
   transform="translate(549.7754,264.6182)"
   id="g56"><path
     d="m 0,0 c -0.274,0.704 -0.52,1.362 -0.737,1.95 -0.672,1.844 -2.515,7.734 -2.515,7.734 l -62.397,176.447 c -0.022,0 -0.543,2.09 -2.017,4.728 -1.483,2.638 -3.857,5.681 -7.464,7.429 -1.788,0.862 -3.871,1.428 -6.348,1.428 l -7.653,0 -0.056,0.18 -5.057,0.013 c 0.056,-0.029 0.112,-0.089 0.138,-0.119 -15.559,0.03 -30.307,0.09 -30.307,0.09 l -13.335,0.029 c 0.013,-0.013 0.042,-0.029 0.069,-0.059 -4.144,0.016 -6.725,0.03 -6.725,0.03 l -13.321,0.029 c 6.022,-4.62 8.411,-12.017 8.656,-12.807 L -81.345,-4.729 c 2.174,-4.306 7.885,-11.759 21.404,-11.759 0.575,0 1.11,-0.023 1.617,-0.057 l 63.083,-0.241 5.584,0 C 5.921,-13.734 2.115,-5.421 0,0"
     inkscape:connector-curvature="0"
     id="path58"
     style="fill:#bababc;fill-opacity:1;fill-rule:nonzero;stroke:none" /></g><g
   transform="translate(372.0737,261.125)"
   id="g60"><path
     d="M 0,0 -78.501,226.006 -152.751,200.382 -99.658,46.624 -83.42,0.983 c 0.028,0 0.537,-2.087 2.017,-4.741 1.484,-2.639 3.857,-5.663 7.463,-7.408 1.785,-0.88 3.872,-1.448 6.347,-1.432 13.246,-0.031 62.912,-0.165 62.912,-0.165 L 8.655,-12.791 C 2.634,-8.171 0.247,-0.774 0,0"
     inkscape:connector-curvature="0"
     id="path62"
     style="fill:#bababc;fill-opacity:1;fill-rule:nonzero;stroke:none" /></g><g
   transform="translate(647.2324,475.9966)"
   id="g64"><path
     d="m 0,0 -21.467,7.485 -1.088,-3.159 c -0.684,-1.955 -2.828,-2.99 -4.786,-2.306 l -26.447,9.235 c -1.959,0.684 -2.991,2.828 -2.308,4.783 l 1.084,3.144 -22.034,7.702 L -85.237,3.428 -8.192,-23.458 0,0 z"
     inkscape:connector-curvature="0"
     id="path66"
     style="fill:#525254;fill-opacity:1;fill-rule:nonzero;stroke:none" /></g><g
   transform="translate(563.2236,478.9961)"
   id="g68"><path
     d="m 0,0 -42.021,-118.289 34.185,-98.416 c 0.178,-0.559 0.696,-2.05 1.632,-3.862 1.649,-2.611 7.813,-10.218 14.515,8.952 0.23,0.664 0.459,1.275 0.678,1.852 L 74.126,-25.867 0,0 z"
     inkscape:connector-curvature="0"
     id="path70"
     style="fill:#737577;fill-opacity:1;fill-rule:nonzero;stroke:none" /></g></g></g></g></svg>