<?xml version="1.0" encoding="utf-8"?>
<!-- Generator: Adobe Illustrator 16.0.0, SVG Export Plug-In . SVG Version: 6.00 Build 0)  -->
<!DOCTYPE svg PUBLIC "-//W3C//DTD SVG 1.1//EN" "http://www.w3.org/Graphics/SVG/1.1/DTD/svg11.dtd">
<svg version="1.1"
	 id="svg2" xmlns:dc="http://purl.org/dc/elements/1.1/" xmlns:cc="http://creativecommons.org/ns#" xmlns:rdf="http://www.w3.org/1999/02/22-rdf-syntax-ns#" xmlns:svg="http://www.w3.org/2000/svg" xmlns:sodipodi="http://sodipodi.sourceforge.net/DTD/sodipodi-0.dtd" xmlns:inkscape="http://www.inkscape.org/namespaces/inkscape" sodipodi:docname="wehicle4.png" inkscape:version="0.48.2 r9819"
	 xmlns="http://www.w3.org/2000/svg" xmlns:xlink="http://www.w3.org/1999/xlink" x="0px" y="0px" width="777.466px"
	 height="735.402px" viewBox="147.981 3.083 777.466 735.402" enable-background="new 147.981 3.083 777.466 735.402"
	 xml:space="preserve">
<sodipodi:namedview  inkscape:cy="224.02824" inkscape:cx="500.71508" inkscape:zoom="0.55100493" showgrid="false" id="namedview3085" guidetolerance="10" gridtolerance="10" objecttolerance="10" borderopacity="1" bordercolor="#666666" pagecolor="#ffffff" inkscape:current-layer="svg2" inkscape:window-maximized="1" inkscape:window-y="0" inkscape:pageopacity="0" inkscape:window-x="0" inkscape:window-height="852" inkscape:pageshadow="2" inkscape:window-width="1440">
	</sodipodi:namedview>
<g id="g10" transform="matrix(1.77673,0,0,-2.0364142,-224.51001,1056.5427)">
	<g id="g12">
		<g>
			<g id="g14">
				<g id="g20" transform="translate(259.5493,500.334)">
					<path id="path22" inkscape:connector-curvature="0" fill="#525254" d="M0,0l-21.764-7.6l-2.959,8.69
						c-0.444,1.272,0.226,2.662,1.497,3.105l17.162,5.993c1.271,0.442,2.661-0.228,3.105-1.5L0,0z M28.953,4.749L7.556-2.722
						L1.632,14.46c-0.683,1.956-2.825,2.99-4.785,2.306l-26.446-9.235c-1.96-0.683-2.992-2.826-2.308-4.782l5.922-17.183
						l-21.396-7.47c-1.959-0.685-2.992-2.828-2.307-4.785l5.005-14.333c0.598-1.715,2.315-2.723,4.048-2.489l-2.045,5.857
						L35.078-10.5l2.044-5.858c1.502,0.896,2.221,2.752,1.621,4.465L33.738,2.443C33.054,4.4,30.913,5.433,28.953,4.749"/>
				</g>
				<g id="g24" transform="translate(296.3857,483.877)">
					<path id="path26" inkscape:connector-curvature="0" fill="#373535" d="M0,0l-77.187-26.953l-0.353,1.013L-0.354,1.011L0,0z"/>
				</g>
				<g id="g52" transform="translate(394.8447,455.3076)">
					<path id="path54" inkscape:connector-curvature="0" fill="#525254" d="M0,0c-5.263,8.903-13.51,10.618-19.485-2.178
						c-0.131-0.281-2.011-5.262-2.153-5.709L-36.71-50.246l-15.549-44.355l34.183-98.416c0.178-0.558,0.695-2.049,1.629-3.862
						c1.649-2.61,7.815-10.217,14.517,8.952c0.231,0.664,0.456,1.277,0.679,1.853l33.753,96.182c0,0-18.592,52.286-20.706,58.403
						C6.831-17.1,1.768-2.979,0,0"/>
				</g>
				<g id="g56" transform="translate(549.7754,264.6182)">
					<path id="path58" inkscape:connector-curvature="0" fill="#737577" d="M0,0c-0.274,0.704-0.52,1.362-0.738,1.95
						c-0.672,1.844-2.514,7.734-2.514,7.734l-62.397,176.447c-0.022,0-0.543,2.09-2.017,4.728c-1.483,2.638-3.857,5.681-7.464,7.429
						c-1.787,0.862-3.871,1.428-6.347,1.428h-7.653l-0.056,0.18l-5.057,0.013c0.055-0.029,0.111-0.089,0.137-0.119
						c-15.559,0.03-30.307,0.09-30.307,0.09l-13.335,0.029c0.013-0.013,0.042-0.029,0.069-0.059c-4.144,0.016-6.725,0.03-6.725,0.03
						l-13.321,0.029c6.022-4.62,8.411-12.017,8.656-12.807L-81.345-4.729c2.173-4.305,7.884-11.759,21.403-11.759
						c0.576,0,1.11-0.023,1.617-0.058l63.083-0.241h5.584C5.921-13.734,2.115-5.421,0,0"/>
				</g>
				<g id="g60" transform="translate(372.0737,261.125)">
					<path id="path62" inkscape:connector-curvature="0" fill="#BABABC" d="M0,0l-78.501,226.006l-74.25-25.624l53.093-153.758
						L-83.42,0.983c0.028,0,0.537-2.087,2.017-4.741c1.484-2.639,3.857-5.663,7.463-7.408c1.785-0.88,3.872-1.448,6.347-1.432
						c13.246-0.032,62.912-0.165,62.912-0.165l13.336-0.029C2.634-8.171,0.247-0.774,0,0"/>
				</g>
				<g id="g64" transform="translate(647.2324,475.9966)">
					<path id="path66" inkscape:connector-curvature="0" fill="#737577" d="M0,0l-21.467,7.485l-1.088-3.159
						c-0.684-1.955-2.827-2.99-4.785-2.306l-26.448,9.235c-1.959,0.684-2.991,2.828-2.307,4.783l1.084,3.144l-22.034,7.702
						l-8.192-23.456l77.045-26.886L0,0z"/>
				</g>
				<g id="g68" transform="translate(563.2236,478.9961)">
					<path id="path70" inkscape:connector-curvature="0" fill="#525254" d="M0,0l-42.021-118.289l34.184-98.416
						c0.178-0.559,0.696-2.051,1.632-3.862c1.649-2.611,7.813-10.218,14.515,8.952c0.23,0.664,0.458,1.275,0.678,1.852
						L74.126-25.867L0,0z"/>
				</g>
			</g>
		</g>
	</g>
</g>
<path id="path3516" inkscape:connector-curvature="0" fill="#737577" d="M481.599,669.04v-68.041h11.414h11.415v26.73
	c0,14.701,0.605,26.73,1.346,26.73c0.741,0,3.126-1.91,5.3-4.246c4.933-5.297,16.368-10.334,23.458-10.334
	c11.938,0,22.1,6.996,28.982,19.951c3.33,6.266,3.648,9.451,4.215,42.016l0.613,35.234h-11.383h-11.385l-0.686-31.996
	c-0.738-34.359-2.037-40.188-9.896-44.367c-5.293-2.814-16.134-2.373-21.098,0.857c-8.342,5.43-9.466,10.725-9.466,44.566v30.939
	h-11.415h-11.414V669.04L481.599,669.04z"/>
<path id="path3518" inkscape:connector-curvature="0" fill="#737577" d="M595.744,690.1v-46.98h11.414h11.414v46.98v46.98h-11.414
	h-11.414V690.1z"/>
<path id="path3520" inkscape:connector-curvature="0" fill="#737577" d="M601.15,628.528c-12.781-5.115-6.486-24.318,7.248-22.104
	c12.219,1.969,15.615,15.996,5.172,21.361C608.376,630.454,606.277,630.581,601.15,628.528L601.15,628.528z"/>
<path id="path3522" inkscape:connector-curvature="0" fill="#737577" d="M670.964,735.879
	c-10.916-3.193-21.467-12.738-26.426-23.908c-5.309-11.955-5.094-30.879,0.488-42.932c4.729-10.213,8.564-14.6,17.855-20.428
	c13.098-8.215,30.234-10.848,44.371-6.82c3.691,1.053,6.951,2.078,7.242,2.281s0.027,3.701-0.588,7.773l-1.117,7.402l-11.777-0.99
	c-20.186-1.695-30.891,4.494-36.049,20.84c-4.049,12.83-1.209,25.266,7.764,34.012c7.211,7.027,13.424,8.588,29.029,7.289
	l11.029-0.92l0.996,4.953c1.992,9.895,1.619,10.457-8.242,12.426c-12.332,2.459-23.939,2.131-34.576-0.98l0,0V735.879z"/>
<path id="path3524" inkscape:connector-curvature="0" fill="#737577" d="M735.98,669.04v-68.041h11.414h11.414v68.041v68.041
	h-11.414H735.98V669.04z"/>
<path id="path3526" inkscape:connector-curvature="0" fill="#737577" d="M812.302,736.538c-7.854-2.205-10.152-3.561-18.176-10.717
	c-14.68-13.086-17.576-44.264-5.871-63.164c17.557-28.348,55.498-30.678,72.227-4.439c4.371,6.859,7.543,18.697,7.562,28.238
	l0.018,8.504h-32.613h-32.613v4.918c0,5.258,3.662,11.982,8.969,16.475c6.801,5.756,22.402,7.064,42.408,3.555
	c4.678-0.82,4.984-0.521,6.605,6.426l1.703,7.287l-7.422,1.908C843.664,738.469,821.072,739.002,812.302,736.538L812.302,736.538z
	 M846.08,674.305c-2.988-15.838-15.033-23.506-28.084-17.879c-8.303,3.58-15.16,12.984-15.16,20.789
	c0,2.984,1.266,3.164,22.195,3.164h22.195L846.08,674.305L846.08,674.305z"/>
<path id="path4321" inkscape:connector-curvature="0" fill="#007ABE" d="M234.699,732.625c-1.969-8.273-15.505-61.02-20.476-79.785
	c-2.714-10.248-5.884-22.275-7.045-26.73c-1.161-4.455-2.636-9.377-3.277-10.936c-1.048-2.549,0.052-2.836,10.911-2.836h12.077
	l1.856,5.266c1.021,2.896,2.632,9.275,3.582,14.176s2.832,13.648,4.183,19.439c2.19,9.387,5.982,27.844,10.899,53.057
	c0.913,4.678,2.175,8.504,2.805,8.504c0.631,0,1.948-3.463,2.928-7.695c4.247-18.346,16.394-61.576,18.336-65.258
	c0.72-1.367,1.835-4.859,2.477-7.762l1.167-5.277l12.476,0.471c11.028,0.416,12.535,0.848,12.985,3.711
	c0.28,1.781,1.148,4.697,1.929,6.48c2.136,4.875,13.441,49.248,16.614,65.205c1.988,10.002,4.065,10.914,5.526,2.43
	c0.575-3.34,2.474-12.271,4.218-19.844c1.744-7.574,4.311-18.873,5.704-25.111c1.393-6.236,3.155-13.162,3.915-15.391
	c0.761-2.227,2.523-9.766,3.917-16.75s2.947-13.363,3.451-14.176c0.505-0.811,5.709-1.475,11.564-1.475h10.646l-1.16,6.824
	c-0.638,3.752-1.753,7.943-2.478,9.314s-2.05,5.408-2.943,8.973c-1.711,6.824-9.586,34.885-18.185,64.801
	c-2.816,9.801-5.998,21.465-7.068,25.92l-1.947,8.1l-12.38,0.471c-12.217,0.463-12.402,0.408-14.133-4.051
	c-0.964-2.486-2.238-7.07-2.832-10.189s-2.151-9.314-3.461-13.77c-4.748-16.145-10.442-39.928-12.703-53.057
	c-1.409-8.178-3.149-7.646-5.311,1.621c-0.987,4.232-2.966,11.887-4.398,17.01s-3.643,13.143-4.914,17.82
	c-1.27,4.678-4.695,16.707-7.612,26.73l-5.302,18.225h-12.74C235.945,737.081,235.743,737.016,234.699,732.625L234.699,732.625z"/>
<path id="path4325" inkscape:connector-curvature="0" fill="#007ABE" d="M406.245,736.999c-13.15-3.289-23.231-11.576-29.153-23.965
	c-2.896-6.059-3.603-10.414-3.592-22.123c0.013-12.68,0.612-15.795,4.597-23.883c5.58-11.326,11.612-17.543,21.761-22.424
	c29.007-13.949,58.606,5.197,59.696,38.617l0.357,10.93l-33.021,0.438c-36.836,0.49-35.232-0.162-29.916,12.16
	c5.561,12.889,20.474,17.906,42.504,14.303c5.803-0.949,11.149-1.131,11.882-0.402c0.732,0.727,1.758,3.934,2.279,7.127
	c0.916,5.611,0.735,5.869-5.358,7.627C439.477,737.942,413.902,738.913,406.245,736.999L406.245,736.999L406.245,736.999z
	 M438.922,675.348c-1.656-8.229-4.77-13.256-10.643-17.184c-7.024-4.697-14.464-4.713-21.531-0.045
	c-5.062,3.344-12.648,15.326-12.812,20.236c-0.051,1.527,5.591,2.023,22.966,2.023h23.033L438.922,675.348L438.922,675.348
	L438.922,675.348z"/>
<path id="path3228" inkscape:connector-curvature="0" fill="#737577" d="M326.948,549.278c-10.495-0.432-19.639-1.467-21.282-2.408
	c-4.259-2.443-11.496-11.117-13.724-16.451c-4.516-10.807-124.126-404.54-124.867-411.036c-0.239-2.096,10.279-6.688,64.459-28.144
	c35.61-14.102,64.88-25.516,65.046-25.365c0.165,0.151,31.313,102.675,69.219,227.831c37.905,125.155,69.855,230.43,71,233.944
	s4.484,10.107,7.422,14.652l5.342,8.266l-52.106-0.266C368.797,550.155,337.068,549.696,326.948,549.278L326.948,549.278z"/>
</svg>
